<svg xmlns="http://www.w3.org/2000/svg" xmlns:xlink="http://www.w3.org/1999/xlink" width="466" height="379" xmlns:v="https://vecta.io/nano"><path d="M466 37.936v303.128C466 362.018 446.962 379 423.472 379H42.528C19.038 379 0 362.018 0 341.064V37.936C0 16.982 19.038 0 42.528 0h380.943C446.962 0 466 16.982 466 37.936z" fill="#f2f2f2"/><path d="M155.404 378l27.265-5.91 31.592-6.855 4.11 12.765z" fill="#2f2e41"/><path d="M224.422 374.605l-.779 3.395H96.356c-1.404-4.276-2.03-8.68-.357-12.318.281-.635.637-1.235 1.059-1.787a9.25 9.25 0 0 1 1.047-1.213c2.502-2.476 4.034-7.812 4.953-13.888 1.103-8.309 1.56-16.69 1.366-25.069l-.077-3.178-1.034-18.368c-1.506-29.843-3.549-86.952 1.749-102.09.338-1.276 1.023-2.434 1.978-3.344 7.131-5.147 14.72-9.629 22.67-13.39l.702-.319 17.475-.332 21.7-3.829 15.075-2.757s1.111.077 2.847.319c5.769.791 18.457 3.383 20.244 10.888 0 .013.013.026.013.038.226.984.265 2.001.115 3-1.71 12.509 10.365 89.339 14.041 93.181s2.706 17.883-6.382 26.805c-1.601 1.65-2.768 3.672-3.395 5.884-3.434 11.041 1.953 29.078 7.225 37.515 3.83 6.25 5.599 13.547 5.055 20.857z" fill="#3f3d56"/><path fill="#a0616a" d="M293.935 128.986l-.366-13.357-.489-17.912-14.28-.66-1.999 17.797-1.863 16.538 18.997-2.406z"/><path d="M147.67 185.543l20.033 21.499s84.881 13.709 85.449 6.511-5.023-9.283 4.142-8.644 11.367 7.151 12.764.924-6.288-6.38 2.61-7.263S301 120 301 120l-31 5s-6.026 37.562-9.804 42.362-7.57 8.245-9.901 8.452l-102.626 9.728z" fill="#3f3d56"/><circle cx="159.158" cy="128.318" r="29.429" fill="#a0616a"/><path d="M136.225 153.664l11.667 2.234s-10.85-17.513-10.212-25.529 9.369-10.888 9.369-10.888 4.838 1.047 9.931 1.634a25.61 25.61 0 0 1 2.361-4.914c.189 2 1.074 3.871 2.502 5.285a13.96 13.96 0 0 0 5.527-.638c2.017-.919 1.978-2.515 1.315-4.008 9.714.472 18.917 5.195 18.917 5.195.294-3.919.144-7.858-.447-11.743a21.12 21.12 0 0 1-.843-.255c-1.74-.55-3.417-1.282-5.004-2.183a8.62 8.62 0 0 0 4.723-2.221c-1.072-3.14-2.783-5.859-5.476-7.186a20.19 20.19 0 0 0-16.76-.447s6.242-4.557 3.944-6.421c-.153.153-.306.294-.472.434-.217.179-.46.37-.689.549-1.417 1.149-3.536-.472-3.817-2.208a5.85 5.85 0 0 0-.128-.651c-.038-.179-.089-.357-.14-.523a4.33 4.33 0 0 0-.153-.434c-4.251-1.021-17.104 3.127-22.044 12.267 0 0-34.528 16.594-4.072 52.654z" fill="#3f3d56"/><path fill="#a0616a" d="M122.115 378h-16.492l-.562-.932-8.003-13.173-4.417-7.276 10.416-7.824 4.902-3.676 10.811 25.107 3.345 7.774z"/><path d="M129.715 183.354l41.153 95.083 16.645-102.001-2.846-.319-7.084-13.76-40.578 2.106-6.586 18.572-.702.319zM183.856 378h-32.409l20.692-58.717 10.53 52.807 1.187 5.91z" fill="#6c63ff"/><g fill="#fff"><rect x="261" y="197.816" width="146.648" height="87.168" rx="26.744" opacity=".5"/><path d="M380.903 285.983h-93.159c-15.315-.018-27.727-12.429-27.744-27.744v-33.68c.018-15.315 12.429-27.727 27.744-27.744h93.159c15.315.018 27.727 12.429 27.744 27.744v33.68c-.018 15.315-12.429 27.727-27.744 27.744zm-93.159-87.168c-14.211.016-25.728 11.533-25.744 25.744v33.68c.016 14.211 11.533 25.728 25.744 25.744h93.159c14.211-.016 25.728-11.533 25.744-25.744v-33.68c-.016-14.211-11.533-25.728-25.744-25.744z"/></g><circle cx="334.204" cy="244.735" r="21.36" fill="#a0616a"/><path d="M338.888 265.974c-2.623-5.847 11.586-17.979 2.482-18.594 0 0-5.985-10.492-9.785-7.679-4.4 3.257-10.811-2.659-14.578-6.616a12.58 12.58 0 0 0 2.142-2.211 23.66 23.66 0 0 1-3.626.38 6.15 6.15 0 0 1-.929-2.209c-.362-1.531.267-3.125 1.576-3.998 1.38-.769 3.144-.3 4.619-.851.374-.182.634-.537.697-.948a3.33 3.33 0 0 1 4.584-2.295c.171.097.363.15.56.156a12.98 12.98 0 0 0 3.029-.559c-1.104-.516-2.167-1.116-3.18-1.794l-.62-.432c1.856-1.508 4.278-2.131 6.631-1.706a24.1 24.1 0 0 1 6.969 2.516q1.937.944 3.866 1.884c2.776 1.222 5.416 2.735 7.874 4.513a22.15 22.15 0 0 1 8.455 16.867c.118 6.505-5.447 24.331-20.764 23.578z" fill="#2f2e41"/><g fill="#fff"><rect x="87.352" y="282.832" width="146.648" height="87.168" rx="26.744" opacity=".5"/><path d="M207.256 371h-93.159c-15.315-.017-27.727-12.429-27.744-27.744v-33.68c.017-15.315 12.429-27.727 27.744-27.744h93.159c15.315.017 27.727 12.429 27.744 27.744v33.68c-.017 15.315-12.429 27.727-27.744 27.744zm-93.159-87.168c-14.211.016-25.728 11.533-25.744 25.744v33.68c.016 14.211 11.533 25.728 25.744 25.744h93.159c14.211-.016 25.728-11.533 25.744-25.744v-33.68c-.016-14.211-11.533-25.728-25.744-25.744z"/></g><circle cx="162.107" cy="332.513" r="21.703" fill="#ffb6b6"/><path d="M147.969 338.089a1.99 1.99 0 0 0-2.591 1.521c-.145 1.162.196 2.331.941 3.234.741.887 1.405 1.836 1.985 2.836.578 1.033.504 2.307-.189 3.267-.755.735-1.865.969-2.852.602-.963-.376-1.814-.991-2.474-1.787-4.149-4.502-8.477-11.974-6.356-17.717a5.61 5.61 0 0 0 .207-1.891c.041-.731.176-1.831-.512-2.08-1.921-.693 3.469-11.92 11.786-14.363-.405-3.833 19.606-9.347 18.513-4.535-.196.864 1.736.394 2.621.442 6.789.367 14.457 2.074 13.839 9.943-.239 3.047 1.021 2.344 2.033 5.229-1.577.94-2.094 3.001-3.309 1.626s-2.254-3.098-3.996-3.676c-1.855-.615-3.868.305-5.45 1.452s-3.034 2.573-4.894 3.174c-2.086.674-4.36.205-6.535.478a12.93 12.93 0 0 0-7.881 4.63 38.44 38.44 0 0 0-4.895 7.935" fill="#2f2e41"/><path d="M135.765 196.508l-29.358 1.276s-43.399 74.034-38.294 79.14 10.322 2.207 3.884 8.762-12.82 4.002-8.99 9.108 8.935-.64 3.829 6.701S103.216 378 103.216 378l17.87-8.935s-17.39-45.696-18.587-51.686-1.355-11.11 0-13.018 33.267-107.853 33.267-107.853z" fill="#3f3d56"/><circle cx="286.117" cy="212.893" r="6.883" fill="#6c63ff"/><use xlink:href="#B" fill="#fff"/><circle cx="118.117" cy="298.893" r="6.883" fill="#6c63ff"/><use xlink:href="#B" x="-168" y="86" fill="#fff"/><use xlink:href="#C" fill="#e6e6e6"/><use xlink:href="#D" fill="#fff"/><use xlink:href="#C" x="-176" y="82.001" fill="#e6e6e6"/><path d="M211.487 300.077l-1.422-1.422 1.422-1.422a.67.67 0 1 0-.948-.948l-1.422 1.422-1.422-1.422a.67.67 0 1 0-.948.948l1.422 1.422-1.422 1.422a.67.67 0 0 0 .299 1.125.67.67 0 0 0 .649-.177l1.422-1.422 1.422 1.422a.67.67 0 1 0 .948-.948z" fill="#fff"/><circle cx="286" cy="91" r="12" fill="#a0616a"/><g fill="#fff"><rect x="260.676" y="87.799" width="146.648" height="87.168" rx="26.744" opacity=".5"/><path d="M380.58 175.968h-93.16c-15.315-.017-27.727-12.429-27.744-27.744v-33.68c.017-15.315 12.429-27.727 27.744-27.744h93.16c15.315.017 27.727 12.429 27.744 27.744v33.68c-.017 15.315-12.429 27.727-27.744 27.744zm-93.16-87.168c-14.211.016-25.728 11.533-25.744 25.744v33.68c.016 14.211 11.533 25.728 25.744 25.744h93.16c14.211-.016 25.728-11.533 25.744-25.744v-33.68c-.016-14.211-11.533-25.728-25.744-25.744z"/></g><path d="M361.834 133.886c.061 5.597 1.843 17.25.566 22.733l-.206-.459c-1.061.841-2.189 1.596-3.372 2.256a16.16 16.16 0 0 0-3.747-5.505c.213 2.573-.091 5.162-.895 7.616-4.779 1.72-13.167-3.701-18.366-3.816-8.365-.191-16.516-2.271-24.506-4.473-2.837-.78-5.956-1.797-7.241-4.152s1.014-4.897.864-7.555c-1.071-18.929 7.945-22.102 16.524-27.16 1.888-1.113 2.814-3.51 4.947-4.443 2.959-1.292 6.484-.673 9.703-.023-1.626-.536-2.855-1.88-3.242-3.548-.274-1.639.394-3.292 1.728-4.282a7.97 7.97 0 0 1 6.683-.956c2.187.684 4.255 1.7 6.132 3.013a12.18 12.18 0 0 1 3.364 2.722c.917 1.067 1.075 2.591.398 3.823a4.37 4.37 0 0 1-3.418 1.659 11.44 11.44 0 0 1-3.013-.313 22.92 22.92 0 0 1 11.676 7.065c3.831 4.458 5.352 10.2 5.421 15.797z" fill="#2f2e41"/><circle cx="331.827" cy="133.572" r="18.538" fill="#ffb6b6"/><g fill="#2f2e41"><path d="M352.054 130.774c-2.179 2.638-5.421 2.5-8.304 2.08l-2.73-.443-.551-1.522a16.16 16.16 0 0 0-3.747-5.505 19.04 19.04 0 0 1-.466 6.064q-2.535-.585-5.047-1.307c-3.077-.5-5.222-3.324-4.878-6.423-2.409 1.835-5.031 3.426-7.784 3.456-3.185-.083-5.944-2.231-6.805-5.299a17.49 17.49 0 0 1-.329-7.417c.367-2.944 1.193-6.178 3.181-7.363 1.598-.963 3.441-.275 5.085.505 3.622 1.738 7.055 3.844 10.246 6.285l.038.803c.826-3.953 3.556-7.004 6.53-7.31 2.003-.199 3.961.726 5.849 1.659 2.469 1.089 4.764 2.534 6.813 4.29 2.315 2.106 3.922 4.875 4.603 7.929.711 3.311.176 7.241-1.705 9.52z"/><path d="M333.704 105.047c.19.016-.277-.091-.125-.027a1.51 1.51 0 0 1-.214-.12c-.012-.007-.162-.129-.064-.044a1.49 1.49 0 0 1-.492-.686c-.211-.66-.309-1.35-.29-2.042a6.46 6.46 0 0 0-.455-2.663 1.59 1.59 0 0 0-2.504-.558 3.7 3.7 0 0 0-.72 2.474 7.97 7.97 0 0 0 .269 2.541 7.29 7.29 0 0 0 2.231 3.504c1.233 1.08 2.782 1.734 4.416 1.864a1.16 1.16 0 0 0 .811-1.958l-2.052-1.948c-.449-.443-1.171-.441-1.617.005s-.448 1.168-.005 1.617l2.052 1.948.811-1.958a4.56 4.56 0 0 1-.996-.204 3.84 3.84 0 0 1-.995-.436 4.76 4.76 0 0 1-.848-.593l-.476-.463q-.082-.089-.161-.18c.004.004-.216-.271-.122-.145a6.47 6.47 0 0 1-.617-1.033 2.61 2.61 0 0 1-.151-.399c-.073-.225-.132-.454-.178-.686a5.96 5.96 0 0 1-.078-1.477c.01-.209.031-.418.063-.625.029-.109.05-.22.064-.333.004-.278-.038.149-.183.214l-.579.157a.63.63 0 0 1-.472-.276q-.036-.144.02.051c.043.152.077.307.101.464.044.364.07.73.077 1.096a10.9 10.9 0 0 0 .269 2.307c.33 1.561 1.624 2.733 3.209 2.908.631-.005 1.142-.516 1.147-1.147a1.17 1.17 0 0 0-1.147-1.147z"/></g><circle cx="288.117" cy="102.893" r="6.883" fill="#6c63ff"/><use xlink:href="#B" x="2" y="-110" fill="#fff"/><use xlink:href="#C" x="-3" y="-113" fill="#e6e6e6"/><g fill="#fff"><use xlink:href="#D" x="-3" y="-113"/><path d="M428.365 46H26.635a1 1 0 1 1 0-2h401.73a1 1 0 1 1 0 2z"/><ellipse cx="71.654" cy="22.1" rx="7.728" ry="7.9"/><ellipse cx="98.351" cy="22.1" rx="7.728" ry="7.9"/><ellipse cx="125.048" cy="22.1" rx="7.728" ry="7.9"/><path d="M155.489 28.344a.91.91 0 0 1-.653-.275l-5.214-5.33c-.348-.355-.348-.923 0-1.278l5.214-5.33c.353-.361.931-.367 1.292-.014s.367.931.014 1.292l-4.589 4.691 4.589 4.691c.257.263.332.654.189.993s-.475.559-.842.559zm8.762 0a.91.91 0 0 1-.842-.559c-.142-.339-.068-.73.189-.993l4.589-4.691-4.589-4.691c-.353-.361-.347-.939.014-1.292s.939-.347 1.292.014l5.214 5.33c.348.355.348.923 0 1.278l-5.214 5.33a.91.91 0 0 1-.653.275z"/><use xlink:href="#E"/><use xlink:href="#E" x="-23.76"/><use xlink:href="#E" x="22.389" y="0.457"/><path d="M283.13 19.263h-77.502a2.44 2.44 0 0 0-2.126 3.664 2.44 2.44 0 0 0 2.126 1.215h77.502a2.44 2.44 0 0 0 0-4.88z"/></g><defs ><path id="B" d="M285.178 216.476c-.241 0-.468-.113-.612-.306l-1.878-2.504c-.166-.219-.203-.51-.095-.763s.342-.429.615-.461.542.084.705.305l1.229 1.638 3.155-4.733c.235-.352.71-.447 1.062-.212s.447.71.212 1.062l-3.756 5.633c-.138.207-.367.334-.616.341z"/><path id="C" d="M385.117 223.45c-2.749 0-5.226-1.656-6.278-4.195s-.47-5.462 1.473-7.406 4.866-2.525 7.406-1.473 4.195 3.53 4.195 6.278c0 3.753-3.043 6.796-6.796 6.796z"/><path id="D" d="M387.487 218.077l-1.422-1.422 1.422-1.422a.67.67 0 0 0-.299-1.125.67.67 0 0 0-.649.177l-1.422 1.422-1.422-1.422a.67.67 0 1 0-.948.948l1.422 1.422-1.422 1.422a.67.67 0 0 0 .299 1.125.67.67 0 0 0 .649-.177l1.422-1.422 1.422 1.422a.67.67 0 0 0 1.123-.3.67.67 0 0 0-.175-.648z"/><path id="E" d="M366.674 15.114h-9.696a2 2 0 0 0-2.001 2.001v9.705a2 2 0 0 0 2.001 2.001h9.696a2.01 2.01 0 0 0 2.01-2.001v-9.705a2.01 2.01 0 0 0-2.01-2.001z"/></defs></svg>