<svg xmlns="http://www.w3.org/2000/svg" width="590.724" height="659.362" xmlns:v="https://vecta.io/nano"><style><![CDATA[.B{fill:#2f2e41}.C{fill:#3f3d56}.D{fill:#ffb6b6}.E{fill:#cacaca}]]></style><path d="M562.935 621.488a22.73 22.73 0 0 1-21.947-3.866c-7.687-6.452-10.1-17.081-12.058-26.924l-5.8-29.112 12.143 8.362c8.733 6.013 17.662 12.219 23.709 20.929s8.686 20.6 3.828 30.024" fill="#e6e6e6"/><path d="M561.897 656.734c1.229-8.953 2.493-18.02 1.631-27.069-.766-8.036-3.217-15.885-8.209-22.321a37.13 37.13 0 0 0-9.527-8.633c-.953-.6-1.829.909-.881 1.507a35.3 35.3 0 0 1 13.963 16.847c3.04 7.732 3.528 16.161 3 24.374-.317 4.967-.988 9.9-1.665 14.83a.9.9 0 0 0 .61 1.074.88.88 0 0 0 1.074-.61z" fill="#f2f2f2"/><path d="M517.885 508.034H9.851V0h508.034z" fill="#fff"/><path d="M517.885 508.034H9.851V0h508.034zm-500.528-7.506h493.022V7.506H17.357zM207.885 79.482h220v6.853h-220zm0 17.818h220v6.853h-220zm0 17.818h220v6.853h-220zm0 117.365h220v6.853h-220zm0 17.818h220v6.853h-220zm0 17.818h220v6.853h-220zm0 117.364h220v6.853h-220zm0 17.818h220v6.853h-220zm0 17.818h220v6.853h-220z" fill="#e5e5e5"/><g class="C"><path d="M119.814 134.084c-3.758-1.981-7.681-3.631-11.725-4.934l-.516-5.704-20.911-2.253-2.658 7.29-7.504 2.816c-.269.102-.524.235-.762.397h-.008a3.72 3.72 0 0 0-1.587 2.475 3.8 3.8 0 0 0 .056 1.491l.397 1.626a37.58 37.58 0 0 0 1.745.976l.373.19c.857.444 1.729.865 2.626 1.253l.563.238c.016.008.024.008.04.016.421.175.841.341 1.269.5a41.69 41.69 0 0 0 4.3 1.38c3.719.991 7.551 1.492 11.4 1.491a42.57 42.57 0 0 0 4.165-.198 44.04 44.04 0 0 0 9.234-1.864c.008 0 .016-.008.024-.008a43.34 43.34 0 0 0 5.545-2.197c.008-.008.024-.008.032-.016.404-.19.793-.397 1.19-.595l.19-.095.952-.508c.793-.436 1.571-.896 2.34-1.388a14.19 14.19 0 0 0 .635-.405c.301-.198.603-.405.896-.619a34.41 34.41 0 0 0-2.3-1.356z"/><path d="M80.57 137.598l-1.309-5.91h-3.419a.82.82 0 0 0-.103.008h-.008a7.41 7.41 0 0 0-3.443 1.19c-.699.446-1.321 1.004-1.84 1.65l3.157 2.166.048.024.944.563 1.745.976.373.19 2.626 1.253.563.238c.016.008.024.008.04.016l1.269.5z"/></g><circle cx="96.298" cy="102.527" r="15.06" fill="#ffb8b8"/><path d="M86.186 95.192c1.559 1.845 4.197 2.366 6.631 2.579 5.69.314 11.396-.152 16.96-1.385.345 3.341-.595 6.944 1.373 9.693a45 45 0 0 0 1.599-10.201c.147-1.48-.046-2.975-.565-4.369a4.02 4.02 0 0 0-3.423-2.524 8.58 8.58 0 0 1 3.827-1.636l-4.782-2.403 1.228-1.261-8.657-.53 2.507-1.593c-3.774-.519-7.592-.639-11.391-.36a9.78 9.78 0 0 0-5.038 1.4c-1.429 1.022-2.255 3.054-1.368 4.555-2.259.371-4.165 1.884-5.04 3.999-.544 1.654-.675 3.415-.383 5.132.326 2.753.966 5.461 1.907 8.069z" class="B"/><path d="M138.646 86.202c-5.775-16.591-20.828-28.185-38.343-29.534S66.137 64.472 57.89 79.982s-6.525 34.433 4.388 48.2a43.24 43.24 0 0 0 1.23 1.483c.032.032.055.063.087.095 1.034 1.191 2.133 2.325 3.292 3.395a32.3 32.3 0 0 0 .936.833 31.52 31.52 0 0 0 1.864 1.547l.762.587c1.015.769 2.07 1.483 3.157 2.166l.048.024.944.563a37.58 37.58 0 0 0 1.745.976l.373.19a42.04 42.04 0 0 0 2.626 1.253l.563.238c.016.008.024.008.04.016.421.175.841.341 1.269.5 1.407.537 2.842.998 4.3 1.38 3.719.991 7.551 1.492 11.4 1.491a42.57 42.57 0 0 0 4.165-.198 44.04 44.04 0 0 0 9.234-1.864c.008 0 .016-.008.024-.008a43.34 43.34 0 0 0 5.545-2.197c.008-.008.024-.008.032-.016.404-.19.793-.397 1.19-.595l.19-.095.952-.508a41.15 41.15 0 0 0 2.34-1.388c.214-.127.421-.262.635-.405.301-.198.603-.405.896-.619.389-.27.777-.547 1.158-.833.119-.087.246-.175.365-.27a44.18 44.18 0 0 0 15.009-49.723zm-16.468 47.795a13.72 13.72 0 0 1-.801.587 13.08 13.08 0 0 1-.793.563 13.6 13.6 0 0 1-.698.476l-.071.048a19.67 19.67 0 0 1-.524.341q-.988.619-1.999 1.19l-.214.119-.904.484c-.04.024-.088.04-.127.063l-.048.024a31.46 31.46 0 0 1-1.158.571 38.91 38.91 0 0 1-4.625 1.872l-.619.206a41.61 41.61 0 0 1-8.742 1.777 43.31 43.31 0 0 1-3.943.182 41.21 41.21 0 0 1-10.781-1.412c-1.804-.471-3.572-1.07-5.291-1.793-.088-.04-.183-.071-.27-.111-.095-.04-.182-.071-.27-.111-.095-.04-.182-.079-.278-.127a37.41 37.41 0 0 1-2.205-1.055l-.349-.182c-.881-.46-1.745-.952-2.586-1.476-.246-.151-.5-.309-.738-.476-.063-.04-.119-.079-.182-.119a39.49 39.49 0 0 1-1.674-1.166l-1.111-.841c-.611-.46-1.198-.952-1.769-1.46-.301-.254-.595-.531-.88-.793-1.125-1.039-2.19-2.14-3.189-3.3-.333-.381-.658-.762-.968-1.158a3.02 3.02 0 0 1-.198-.246c-10.542-13.303-11.987-31.663-3.654-46.451s24.785-23.064 41.625-20.938 30.72 14.23 35.116 30.625-1.565 33.82-15.083 44.086z" class="C"/><path d="M138.647 239.202c-5.775-16.591-20.828-28.185-38.343-29.534s-34.166 7.804-42.413 23.315-6.525 34.433 4.388 48.2c.397.5.809 1 1.229 1.483.032.032.055.063.087.095 1.034 1.191 2.133 2.325 3.292 3.395a31.79 31.79 0 0 0 .936.833 31.63 31.63 0 0 0 1.864 1.547 43.45 43.45 0 0 0 3.919 2.753l.048.024c.88.547 1.777 1.055 2.689 1.539l.373.19a42.04 42.04 0 0 0 2.626 1.253l.563.238c.016.008.024.008.04.016a42.93 42.93 0 0 0 5.569 1.88 44.21 44.21 0 0 0 11.399 1.491c1.404 0 2.792-.063 4.165-.198 3.136-.289 6.231-.914 9.234-1.864.008 0 .016-.008.024-.008 1.897-.604 3.749-1.338 5.545-2.197.008-.008.024-.008.032-.016.404-.19.793-.397 1.19-.595l.191-.095.952-.508c.793-.436 1.571-.896 2.34-1.388.214-.127.42-.262.634-.405.698-.46 1.388-.952 2.054-1.452.119-.087.246-.175.365-.27a44.18 44.18 0 0 0 15.009-49.723z" fill="#fff"/><g class="B"><circle cx="111.495" cy="265.321" r="6.623"/><path d="M113.341 258.88c2.332 0 4.492 1.226 5.687 3.229s1.25 4.486.143 6.538a6.62 6.62 0 0 0-4.969-10.752 6.62 6.62 0 0 0-6.032 3.476c1.254-1.575 3.158-2.492 5.171-2.491z"/><circle cx="99.119" cy="245.851" r="19.456"/><path d="M83.849 233.779c6.969-7.837 18.895-8.74 26.964-2.04l-.482-.451a19.46 19.46 0 0 0-25.964 28.983q.055.05.111.099c.165.147.335.286.504.426-7.598-7.228-8.099-19.178-1.132-27.017z"/></g><circle cx="98.954" cy="252.611" r="12.531" fill="#a0616a"/><path d="M121.377 285.26v4.204l-2.34 1.388-.952.508-.191.095-1.19.595c-.008.008-.024.008-.032.016-1.796.859-3.649 1.593-5.545 2.197-.008 0-.016.008-.024.008-3.002.95-6.098 1.575-9.234 1.864l-4.165.198a44.21 44.21 0 0 1-11.399-1.491 42.93 42.93 0 0 1-5.569-1.88c-.016-.008-.024-.008-.04-.016l-.563-.238a42.04 42.04 0 0 1-2.626-1.253l-.373-.19a45.06 45.06 0 0 1-2.689-1.539l-.048-.024a43.45 43.45 0 0 1-3.919-2.753l-1.864-1.547a31.79 31.79 0 0 1-.936-.833c-1.159-1.07-2.258-2.204-3.292-3.395a16.05 16.05 0 0 1 .603-2.435l.008-.008a3.56 3.56 0 0 1 .167-.397c.044-.114.094-.225.151-.333 1.42-2.657 3.99-3.316 7.179-3.459l5.894-.016 3.411-.151c7.258-.658 5.942-4.942 6.267-7.251.325-2.237 2.34-.301 2.475-.175l.008.008a25.6 25.6 0 0 0 13.169 2.308l2.332-.175c2.047-.024 1.602.563.897 1.047a8.87 8.87 0 0 1-1.071.603s-.325 1.983-.658 4.95c-.317 2.84 5.125 4.173 5.577 4.276.009.006.021.009.032.008 1.987-.515 4.08-.46 6.037.159h.008c2.272.836 3.968 2.764 4.506 5.125z" fill="#6c63ff"/><path d="M80.816 290.361l-.04 1.682-.04.92c-.016-.008-.024-.008-.04-.016l-.563-.238-2.626-1.253-.373-.19-2.689-1.539.103-.833.206-1.84a25.53 25.53 0 0 0-2.261-12.502v-.008l-.254-.492s2.308-1.983 5.6 0a1.98 1.98 0 0 1 .548.476c1.983 2.34 2.522 10.21 2.427 15.834zm36.023-1.079l-.135 2.761v.008c-.008.008-.024.008-.032.016-1.796.859-3.649 1.593-5.545 2.197-.008 0-.016.008-.024.008l-.087-2.229-.008-.294-.42-10.852a1.82 1.82 0 0 1 1.817-1.904h4.022c.198 0 .341.405.437 1.134v.008a68.77 68.77 0 0 1-.024 9.147zm-28.603-52.334v12.534h2.902l3.693-3.957-.494 3.957h12.827l-.793-3.957 1.587 3.957h2.045v-12.534z" class="B"/><g fill="#a0616a"><ellipse cx="86.258" cy="249.974" rx=".989" ry="1.813"/><ellipse cx="111.65" cy="249.974" rx=".989" ry="1.813"/></g><path d="M124.066 287.608l-2.054 1.452-.634.405-2.34 1.388-.952.508v-8.742l3.292 2.705.793.674 1.896 1.61z" fill="#6c63ff"/><path d="M138.647 239.202c-5.775-16.591-20.828-28.185-38.343-29.534s-34.166 7.804-42.413 23.315-6.525 34.433 4.388 48.2c.397.5.809 1 1.229 1.483.032.032.055.063.087.095 1.034 1.191 2.133 2.325 3.292 3.395a31.79 31.79 0 0 0 .936.833 31.63 31.63 0 0 0 1.864 1.547 43.45 43.45 0 0 0 3.919 2.753l.048.024c.88.547 1.777 1.055 2.689 1.539l.373.19a42.04 42.04 0 0 0 2.626 1.253l.563.238c.016.008.024.008.04.016a42.93 42.93 0 0 0 5.569 1.88 44.21 44.21 0 0 0 11.399 1.491c1.404 0 2.792-.063 4.165-.198 3.136-.289 6.231-.914 9.234-1.864.008 0 .016-.008.024-.008 1.897-.604 3.749-1.338 5.545-2.197.008-.008.024-.008.032-.016.404-.19.793-.397 1.19-.595l.191-.095.952-.508c.793-.436 1.571-.896 2.34-1.388.214-.127.42-.262.634-.405.698-.46 1.388-.952 2.054-1.452.119-.087.246-.175.365-.27a44.18 44.18 0 0 0 15.009-49.723zm-16.469 47.795c-.262.206-.531.405-.801.587-.262.198-.524.389-.793.563-.23.167-.46.325-.698.476-.198.135-.397.262-.595.389q-.987.619-1.999 1.19l-.215.119-.904.484c-.04.024-.088.04-.127.063l-.048.024c-.381.198-.769.389-1.158.571-1.5.722-3.045 1.348-4.625 1.872l-.619.206a41.61 41.61 0 0 1-8.742 1.777 43.31 43.31 0 0 1-3.943.182c-3.64.007-7.265-.467-10.781-1.412a39.18 39.18 0 0 1-5.291-1.793c-.182-.071-.365-.151-.54-.222a4.4 4.4 0 0 1-.278-.127c-.746-.325-1.483-.682-2.205-1.055l-.349-.182a39.59 39.59 0 0 1-2.586-1.475c-.309-.19-.619-.389-.92-.595-.952-.627-1.88-1.301-2.785-2.007-.611-.46-1.198-.952-1.769-1.46-.301-.254-.595-.531-.88-.793-1.125-1.039-2.189-2.14-3.189-3.3-.333-.381-.658-.762-.968-1.158-.07-.078-.137-.161-.198-.246-10.542-13.303-11.987-31.663-3.654-46.451s24.785-23.064 41.625-20.938 30.72 14.23 35.116 30.625-1.565 33.82-15.083 44.086z" class="C"/><g class="B"><circle cx="97.161" cy="409.276" r="17.315"/><ellipse cx="384.485" cy="516.46" rx="7.165" ry="5.373" transform="matrix(.707107 -.707107 .707107 .707107 -557.21748 302.82059)"/><ellipse cx="413.257" cy="511.947" rx="5.373" ry="7.165" transform="matrix(.392826 -.919613 .919613 .392826 -524.51191 570.55853)"/></g><path d="M117.872 442.862l-2.04-3.21a8.01 8.01 0 0 0-10.553-4.049 8.01 8.01 0 0 0-4.087 10.539l.58 2.08.66 2.36a45.21 45.21 0 0 0 7.88-1.72c.008-.001.015-.005.02-.01a42.15 42.15 0 0 0 5.55-2.2c.01-.01.02-.01.03-.02l1.19-.59c.065-.029.129-.063.19-.1a28.68 28.68 0 0 0 .95-.5q.48-.255.93-.54z" class="E"/><circle cx="97.711" cy="413.41" r="14.695" class="D"/><g class="E"><path d="M118.932 442.232c-1.621-2.695-3.633-5.135-5.97-7.24a8.73 8.73 0 0 0-5.82-2.22h-20.7c-2.411-.001-4.715.996-6.365 2.754s-2.499 4.12-2.345 6.526c.045.671.166 1.336.36 1.98.148.467.331.922.55 1.36l1.02 2.04.24.1c.02.01.03.01.04.02l1.27.5a41.35 41.35 0 0 0 4.3 1.38 43.33 43.33 0 0 0 7.16 1.29l4.24.2 4.17-.2 1.35-.14a45.21 45.21 0 0 0 7.88-1.72c.008-.001.015-.005.02-.01a42.15 42.15 0 0 0 5.55-2.2c.01-.01.02-.01.03-.02l1.19-.59c.065-.029.129-.063.19-.1l.95-.5q.48-.255.93-.54l.93-.55-1.17-2.12z"/><path d="M90.192 435.452c-3.988-1.865-8.734-.158-10.62 3.82l-1.84 2.78-.88 1.33-1.34 2.02.83.45.37.19c.86.44 1.73.86 2.63 1.25.1.05.21.09.32.14.08.03.16.07.24.1.02.01.03.01.04.02l1.27.5a41.35 41.35 0 0 0 4.3 1.38 43.33 43.33 0 0 0 7.16 1.29l.7-2.37.68-2.26c1.867-4.004.14-8.764-3.86-10.64z"/></g><path d="M82.27 404.167c3.358 2.314 7.344 3.546 11.422 3.53a12.25 12.25 0 0 1-4.854 1.997 40.3 40.3 0 0 0 16.461.092c1.208-.194 2.374-.594 3.446-1.184a4.36 4.36 0 0 0 2.127-2.845c.361-2.063-1.247-3.938-2.917-5.201a21.52 21.52 0 0 0-18.083-3.613c-2.061.415-3.937 1.475-5.356 3.027a4.88 4.88 0 0 0-.451 5.794z" class="B"/><path d="M138.652 392.202c-5.774-16.592-20.827-28.189-38.344-29.539s-34.169 7.804-42.416 23.316a44.2 44.2 0 0 0 4.39 48.203c.39.5.81 1 1.23 1.48.024.035.051.069.08.1 1.036 1.191 2.137 2.323 3.3 3.39.3.28.61.57.93.84.6.54 1.22 1.05 1.87 1.54.25.2.5.4.76.59 1.01.77 2.07 1.48 3.15 2.17.018 0 .036.007.05.02a29.87 29.87 0 0 0 .95.56l.91.53.83.45.37.19c.86.44 1.73.86 2.63 1.25.1.05.21.09.32.14.08.03.16.07.24.1.02.01.03.01.04.02l1.27.5a41.35 41.35 0 0 0 4.3 1.38 43.33 43.33 0 0 0 7.16 1.29c1.41.13 2.82.2 4.24.2a44.27 44.27 0 0 0 4.17-.2l1.35-.14a45.21 45.21 0 0 0 7.88-1.72c.008-.001.015-.005.02-.01a42.15 42.15 0 0 0 5.55-2.2c.01-.01.02-.01.03-.02.4-.19.79-.39 1.19-.59a1.72 1.72 0 0 0 .19-.1 28.68 28.68 0 0 0 .95-.5q.48-.255.93-.54c.32-.17.62-.36.93-.55q.24-.15.48-.3a11.44 11.44 0 0 0 .64-.41 17.4 17.4 0 0 0 .89-.61c.39-.27.78-.55 1.16-.84a4.34 4.34 0 0 0 .37-.27c15.234-11.58 21.291-31.645 15.01-49.72zm-16.47 47.79a11.11 11.11 0 0 1-.8.59c-.271.2-.53.39-.8.57a17.08 17.08 0 0 1-.7.47c-.022.019-.045.036-.07.05-.17.12-.35.23-.52.34-.12.07-.24.15-.36.22a22.86 22.86 0 0 1-1.06.63c-.19.12-.39.23-.58.34l-.21.12c-.31.17-.61.32-.91.48-.04.03-.09.04-.12.07-.019 0-.036.008-.05.02a25 25 0 0 1-1.16.57 38.61 38.61 0 0 1-4.63 1.87c-.2.07-.41.15-.61.21a41.85 41.85 0 0 1-7.83 1.68c-.3.04-.61.07-.92.1a42.79 42.79 0 0 1-3.94.18 41.72 41.72 0 0 1-3.54-.15 41.23 41.23 0 0 1-7.24-1.26 38.3 38.3 0 0 1-5.29-1.8c-.09-.04-.18-.07-.27-.11-.1-.04-.18-.07-.27-.11-.1-.04-.18-.08-.28-.13a33.94 33.94 0 0 1-1.93-.91c-.09-.05-.18-.09-.27-.14l-.35-.18-.62-.33a34.93 34.93 0 0 1-1.97-1.15l-.74-.47-.18-.12a45.93 45.93 0 0 1-1.67-1.17l-1.11-.84a27.4 27.4 0 0 1-1.77-1.46c-.3-.25-.6-.53-.88-.79a39.75 39.75 0 0 1-3.19-3.3 27.06 27.06 0 0 1-.97-1.16c-.07-.08-.13-.16-.2-.25a41.78 41.78 0 1 1 58.01 7.32zm48.664-263.703c-42.889-36.191-106.77-31.768-144.263 9.988S-8.453 292.02 32.131 330.779s104.615 38.271 144.604-1.101l127.4 107.5c4.038 3.394 10.061 2.881 13.467-1.147a9.57 9.57 0 0 0-1.109-13.47l-.014-.012-127.4-107.5c30.672-44.02 22.77-104.157-18.233-138.759zm-8.213 128.408a77.82 77.82 0 0 1-137.009-43.613c-2.657-31.361 13.839-61.234 41.796-75.69s61.869-10.648 85.923 9.649h0c32.845 27.715 37.005 76.808 9.29 109.654z" class="C"/><path d="M52.979 313.987c-30.953-26.12-36.696-71.616-13.204-104.608q-2.232 2.248-4.315 4.708c-27.715 32.845-23.556 81.939 9.29 109.654s81.939 23.556 109.654-9.29q2.078-2.463 3.915-5.045c-28.57 28.707-74.383 30.7-105.339 4.582z" opacity=".3"/><path d="M427.685 441.197c2.015-2.459 2.836-5.685 2.244-8.809s-2.538-5.824-5.313-7.376l-23.222-95.049-16.941 5.408 25.076 94.4c-2.349 4.943-.629 10.862 4.003 13.777s10.712 1.905 14.152-2.352z" class="D"/><path d="M415.682 380.399l-12.38 10.68-17.32 14.931-7.65-39.14-.8-4.07-.63-3.23 17.55-30.57 14.63.839 1 .06.02.221.23 2.05 3 26.979.07.651 2.28 20.599z" class="C"/><path d="M334.763 646.074l-12.259-.001-5.833-47.288 18.095.001-.003 47.288z" class="D"/><path d="M337.89 657.958l-39.531-.001v-.5a15.39 15.39 0 0 1 15.386-15.386h.001l24.144.001z" class="B"/><path d="M462.763 647.074l-12.259-.001-5.833-47.288 18.095.001-.003 47.288z" class="D"/><path d="M465.89 658.958l-39.531-.001v-.5a15.39 15.39 0 0 1 15.386-15.386h.001l24.144.001zm6.672-30.708l-33 5-48.01-162.48-50.99 163.48-37-5 48-190v-15l6.5-22.5-.68-6.09-4.73-42.59-2.05-18.47-.133-1.193c-.231-2.075 1.151-3.986 3.193-4.417h0l15.4-3.24h25.17l14.85 4.09 1.02.28.46.13-.23 1.92-3.48 29.18-.19 1.6-3.36 28.13-.74 6.17c29 21 30 42 30 42z" class="B"/><circle cx="378.605" cy="288.537" r="24.561" class="D"/><path d="M355.816 397.959l48.586-6.354.908 6.941-48.586 6.354z" class="C"/><path d="M290.644 400.052c.465.301.905.637 1.316 1.007l48.056-12.251 3.278-11.593 18.143 2.661-3.809 21.088a8 8 0 0 1-7.035 6.534l-56.111 5.909a10.5 10.5 0 0 1-19.571-1.603 10.5 10.5 0 0 1 15.731-11.752z" class="D"/><path d="M364.562 335.25l-8.5-6.5c-2.298-.872-5.447 1.605-6 4l-12 49 25 18 3.5-5.5z" class="C"/><g opacity=".2"><path d="M413.332 359.149a67.68 67.68 0 0 1-6.48 2.2l-2.13.6a66.02 66.02 0 0 1-14.34 2.32 45.14 45.14 0 0 1-6.26-.17c-2.233-.223-4.44-.658-6.59-1.3l-.22-.06c-4.471-1.27-8.571-3.599-11.95-6.79a23.56 23.56 0 0 1-2.11-2.35 21.24 21.24 0 0 1-4.56-16.53c.084-.529.197-1.054.34-1.57a25.11 25.11 0 0 1 1.49-4.1c.27-.62.57-1.23.89-1.83l11.3-3.82h21.52l14.85 4.09 1 .06.02.22.46.13-.23 1.92z"/></g><path d="M359.785 268.203c-4.593-.563-9.634-.165-13.214 2.767s-4.736 9.028-1.346 12.178c3.001 2.789 7.693 2.133 11.713 2.926 7.126 1.597 12.239 7.855 12.384 15.157-.06 10.174-9.824 17.879-11.578 27.901-1.197 6.84 1.688 14.038 6.675 18.87s11.843 7.443 18.751 8.15 13.893-.373 20.606-2.148c6.741-1.782 13.378-4.311 19.034-8.388s10.293-9.826 12.109-16.558.512-14.451-4.168-19.62c-5.359-5.919-14.274-7.954-18.91-14.456-5.196-7.288-3.274-17.666-7.479-25.567-2.808-5.275-8.125-8.873-13.792-10.769s-11.719-2.27-17.692-2.453c-3.14-.096-6.375-.129-9.3 1.016s-5.496 3.753-5.648 6.891 1.856 4.102 1.856 4.102z" class="B"/><path d="M589.724 659.362h-381a1 1 0 1 1 0-2h381a1 1 0 1 1 0 2z" class="E"/></svg>