<svg xmlns="http://www.w3.org/2000/svg" width="1706.667" height="861.333" viewBox="0 0 1280 646" preserveAspectRatio="xMidYMid meet" xmlns:v="https://vecta.io/nano"><path d="M917.9 2.5c-15.2 2.7-23.8 5.2-38.4 11.2-16.3 6.7-16.1 6.7-18.5 3.2-1.4-1.9-3.8-3.4-7.2-4.4-9.5-2.8-8.3-4.1-20.8 22.2L665.2 395.5c-13.7 29.7-25.4 54-26.1 54s-11.6-22.5-24.3-50l-153.1-330C437.8 18.6 435 13 433.7 13c-.7 0-3.7.7-6.7 1.5-3.9 1-6.3 2.4-8.2 4.6l-2.7 3.3-15.3-6.2c-17.3-6.9-31.3-10.6-46.5-12.3-12.2-1.3-14.7-.6-4.1 1.1 13.5 2.2 30.2 6.2 40.3 9.7 22.6 7.8 27.9 12.8 39.5 36.8 10.1 20.9 15.3 33.3 14.5 34.5-1 1.7-3.2 1.2-10.3-2.4-15.3-7.7-40.6-13.9-61.5-15.1-6.4-.3-11.7-.3-11.7.1 0 .3 3.4 7.7 7.6 16.2 8.5 17.5 15.7 34 17.2 39.5 1.4 4.9.2 6.1-8 8.1-13.6 3.3-25.9 8.5-39.4 16.5-7.4 4.5-14.1 8.1-14.9 8.1-1.7 0-3.3-3-15-28.5-14.1-30.6-14.2-30.7-16.8-29.4-1.2.6-13.1 12.2-26.3 25.7-16.4 16.5-24.6 24.2-25.4 23.7-1.4-.9-15.3-29.3-21.5-43.9-5.2-12.2-5.5-15.5-2-20.9C220.3 78 262.3 36 264.3 36c.8 0 2.4 1.2 3.5 2.7 2.5 3.6 11.6 21.8 19.8 39.7l6.9 14.4c.2.2 4.2-1.9 8.9-4.8 18.9-11.4 42.5-21 51.6-21 3 0 4.1-.4 3.7-1.3-.3-.6-4.8-10.7-10-22.2-11.1-24.9-14.9-34.1-15.1-37.2-.1-2-.6-2.3-4.6-2.3-6 .1-19.8 3.2-28.5 6.5-25.1 9.4-41.2 22.7-86.5 71.5-28.8 31-50.4 52.1-63 61.7-42.2 32-79.6 34.4-136.9 8.8-5.7-2.5-10.9-4.5-11.6-4.3-.9.2 1.1 5.8 6.2 17.3l104 228 30.8 67 15 7.6c25.5 12.8 33.1 14.4 68 14.4 24.9-.1 25-.1 32.5-2.9 20.8-7.7 37.2-18.2 56.5-36 5.3-4.9 21.7-22 36.4-38 53.1-57.7 74.3-74.6 105.7-84.3 8.2-2.5 10.3-2.7 26.4-2.7 19.6-.1 26.8 1 45 7.1 14.1 4.7 36.4 15.4 38.3 18.4 1.5 2.3 60.7 130.6 60.7 131.5 0 .3-10.3 22.9-22.9 50.2l-50 112.8c2.3 1.4 14.5 4.3 16.1 3.8 2-.6-1.1 5.9 36.2-74.8l31.1-66.4c.3-.3.9-.1 1.4.4.4.5 15.1 31.9 32.6 69.9l33.8 71.8c1.3 1.9 2.4 2.6 3.6 2.2.9-.4 4.1-1.4 7.1-2.3 3-.8 6-1.9 6.7-2.4.8-.7-.1-3.7-3.4-11.1l-57.2-125.5c-12.7-27.5-13-28.4-11.7-31.5 4-9.5 60-130.4 60.9-131.5 1.5-1.9 18.2-10.1 29.6-14.7 12.6-5 29.8-9.2 43.1-10.5 14.4-1.5 26.9-.1 41.3 4.7 27.6 9.1 52.3 29.1 98.4 79.5 34.3 37.5 49.5 51.9 66.4 62.8 13.1 8.5 34.2 17.1 41.6 16.9 3.3 0 2.7-.3-4.4-2.4-10.9-3.3-22.4-8.7-36.8-17.4-6.6-4-12.4-7.7-12.9-8.1-.8-.8 25.2-59 27.4-61.4.5-.5 5.1 1.8 10.5 5.4 17 11 40.9 21 50.1 21 1.2 0 3 .7 3.8 1.5 1.8 1.8.8 4.9-8.4 26-10.5 24.1-16.8 34.5-20.6 34.5-.7 0-1.6.5-2 1.2-.5.8 4.3 1 19.7.5 30.7-1 38.3-2.9 62.9-15.3l14.5-7.3 30.9-67.3 110-244.6c-.8-.2-6.5 1.9-12.6 4.6-43.4 19.1-74.1 21.8-104.8 9.2-24.7-10.2-46.2-28.5-95-81-25.9-27.8-40-41.8-51.8-51.2-18.3-14.5-34.4-21.6-59-25.8-14.6-2.5-20.2-2.4-36.3.5zm27.9 1.2c.4 2.5-4.9 15.7-16.5 41.2L921 64.1c0 .5 1.7.9 3.8.9 10.7 0 37.7 11.5 58 24.8 2.2 1.4 2.3 1.3 5.8-6.4 8.9-19.4 20.6-43 23-46.1 1.4-1.8 3.2-3.3 4.1-3.3 1.8 0 40.1 38.1 46.3 46 5.3 6.8 5.2 8.3-2.3 25.7-10 23.4-18.7 40.3-20.7 40.3-1.1 0-9.8-8.2-20.7-19.6C1000.7 108.1 987.9 96 986 96c-.4 0-5 9.1-10.1 20.2-15.6 33.6-18.1 38.3-20.5 38.1-1.1-.1-6.9-3.2-13-6.9-12.9-8-22.9-12.4-36.2-16-13.2-3.6-13.5-3.8-12.7-8.1.9-4.7 7.6-20.2 17.1-39.8l8.3-16.9c.6-1.3-22.9 0-32.5 1.9-14 2.7-29.5 7.4-39.3 12.1-9.5 4.4-12.1 4.9-12.1 1.9 0-2.1 9.9-24.3 17.1-38.6 7-13.9 11.9-19.7 20.2-24.3 11.7-6.5 35.9-13.6 58.2-17 12-1.9 14.9-1.7 15.3 1.1zm-60.5 122.4c2.8.7 3.7 1.5 3.7 3.1 0 2.2-8.3 21.6-19.4 45.3l-6.6 14 7.3 1.6c18.6 4 29.6 8.5 45.4 18.5 8.9 5.5 10.8 6.4 11.9 5.2.8-.7 6.8-12.8 13.4-26.8 12.6-26.5 14.4-30 16-30 2.2 0 19.8 16 35 31.8 9 9.5 17 17.2 17.7 17.2s4.4-6.4 8.2-14.3l13.5-28c4.2-8.7 7.1-13.7 8.1-13.7.9 0 7 5.7 13.7 12.7 25.6 26.8 38.7 38.9 40.2 37.2.2-.2 6.2-13 13.4-28.4 7.6-16.2 13.8-28.1 14.7-28.3.8-.2 7.8 3.5 15.5 8.2 16 9.7 20.6 11.6 37.8 15.9 9.7 2.5 12.2 3.4 12.2 4.8 0 1-2.5 7.1-5.6 13.6-6.6 14.1-17.9 39.9-18.9 43.1-1 3.3 1.1 3.6 14.8 2.2 15.4-1.6 30.6-5.4 47.2-11.8 7.2-2.8 14.3-5.4 15.8-5.7 6.3-1.6 4.4 4.1-11.6 35.7-5.5 10.8-11.3 21.3-13 23.4-6.8 8.1-38.8 19.4-64.8 22.8-11.4 1.5-16.2 1.2-18.1-1.1-1.6-2-.3-5.6 12.3-34.6 5.5-12.5 10-23.8 10.2-24.9.2-1.9-.5-2.3-4.9-3-10.2-1.5-31.2-10.4-46.3-19.7-4.6-2.8-9.2-5.1-10.1-5.1-1.2 0-4.3 5.6-11 20.2-13.4 29.3-17.8 37.8-19.5 37.8-2.4 0-15.4-12.2-32-30-15.2-16.5-18.9-20-20.8-20-.5 0-5.1 8.9-10.4 19.7-13.6 28.3-16.3 33.6-17.8 35.2-1.8 1.8-4.2-.3-24.7-21.7-15.1-15.8-28.1-28.2-29.6-28.2-.4 0-4 7.5-8.1 16.8-14.9 33.5-19.3 42.2-21.3 42.2-1 0-5.8-2.4-10.6-5.4-16.8-10.3-36.5-18.6-44.4-18.6-1.8 0-4.4-.7-5.7-1.6-2-1.4-2.2-2.2-1.7-5.5.7-4.4 6.5-18.3 15.6-37.4l8.1-17.3 1.9-4.3-6.3.6c-27.6 2.8-41.4 5.9-61.4 14-13.4 5.5-17.3 6.5-17.3 4.4 0-2.8 25.5-57.9 27.8-60 .9-.9 6.9-3.9 13.2-6.7 17.1-7.4 38.4-13.3 55-15.1l8-1c.3 0 2.2.4 4.3 1zm-465.4 4.4c17.8 3.6 43.5 12.6 54.3 19 1.4.9 12.3 23.5 23.9 49.8 3.6 8.1 4.8 12.7 3.3 12.7-.3 0-6.3-2.3-13.2-5.1-21.1-8.6-33.7-11.9-52.7-13.9l-14.2-1.5c-1.8-.2-3.3 0-3.3.4 0 .5 3.3 7.8 7.3 16.2 11.7 24.4 17.7 39.2 17.7 43.2 0 4.1-1.9 5.7-7.1 5.7-7.5 0-29.3 9.2-44.9 19-4.3 2.7-8.6 5-9.5 5.2-2.5.4-3.9-2.2-17.7-32.6-6.4-14.4-12.2-26.2-12.8-26.4s-12.5 11.1-26.3 25.2c-13.9 14.1-25.8 25.6-26.5 25.6-.8 0-7.4-12.4-14.9-27.8l-13.9-28.1c-.9-1-6.3 4.1-21.4 20.2-18.3 19.6-29.4 29.9-31.9 29.5-1.8-.3-4.1-4.9-18.2-35.3-5.4-11.6-10.4-21.4-11.2-21.9-1.1-.7-4.4.8-11.8 5.2-16.8 9.9-39.1 19.2-46.2 19.2-1.2 0-2.8.4-3.5.9-1.6 1 .1 5.7 11.6 31.7 10.1 22.9 11.8 28 10.2 29.9-2.1 2.5-7.8 2.8-19.1 1.1-27.4-4.2-56.3-14.5-63.1-22.5-3.8-4.4-13.8-22.9-22.1-40.8-6.5-13.8-7.7-18-5.5-18.8.8-.3 7.9 1.9 15.7 4.9 7.8 3.1 18.4 6.7 23.4 8.1 15.9 4.3 39.7 6.9 41.2 4.5.7-1.1-4.9-14.5-17-40.5-6.3-13.6-8-18.3-7.1-19.2.6-.6 6.7-2.5 13.5-4.3 14.4-3.6 22.1-7 38.5-16.8 6.5-4 12.2-7.2 12.7-7.2 1.4 0 3.1 3.3 15.9 30.7 6.8 14.5 12.8 26.3 13.5 26.3 2.3 0 16.2-13 32.3-30.1 16.7-18 19.5-20.5 21.4-19.3.9.6 6.7 12.2 22.9 46.2 2.2 4.6 4.7 8.6 5.5 8.9 1 .4 7.3-5.4 19.5-18 16.6-17.2 31.6-30.7 34-30.7.6 0 4 6.2 7.6 13.7l13.9 29c4 8.4 7.8 15.3 8.4 15.3s5.2-2.6 10.3-5.9c5.1-3.2 11.5-7 14.2-8.3 6.9-3.5 21.4-8.3 31.2-10.4 5.6-1.2 8-2.1 7.4-2.8-1.6-2.1-26.1-56.5-26.1-58.1 0-.2.7-1.1 1.6-1.9 2.4-2.4 13.6-2 28.3.9zM831.4 253c1.4 1.4.1 4.6-11.5 30l-14.1 29.7c-.7.9-4.4 1.3-11.9 1.3-19.6 0-36.6 3.5-57.7 12-13.2 5.4-15.2 5.8-15.2 3.5 0-2 11.1-26.7 19.5-43.4 5.3-10.6 7.2-13.5 10.3-15.5 8.7-5.7 37.2-15.4 51.2-17.5l10-1.5c5.8-1 18-.1 19.4 1.4zm-350.1 3.1c16.9 3.4 41.3 12.2 48.4 17.5 2.3 1.7 5.2 6.5 10.4 17.2 9.4 19.4 17.9 38.6 17.9 40.6 0 2.5-2.6 1.9-14.4-2.9-19.3-8-35-11.5-55.6-12.4l-14.4-.6-13.3-28.5c-7.3-15.7-13.1-29.4-13-30.5.1-1.3 1.2-2.2 3.2-2.7 4.6-1 19.8.1 30.8 2.3zm589 13c2.3 1.2 6 3.4 8.2 4.9 10 6.8 28.5 14.8 41.7 18 8.3 2 9.8 2.6 9.8 4 0 .5-5.6 13.2-12.4 28.3l-13.1 29.7-.7 2.3 11.9-.6c20.1-1.1 33.5-4.5 59.2-15.1 7-2.9 11.7-4.4 12.3-3.8s-4.4 12.5-13 31.3l-13.9 30.4-12.4 5.3c-25.9 11.2-40.9 15.2-61.5 16.8-9.7.7-13.4.1-13.4-2.1 0-.8 5.6-13.7 12.4-28.7l12.8-29.3c.2-1.6-.7-2.3-5.7-3.8-19.4-5.9-23.2-7.3-29.8-10.6-4-2-11.5-6.3-16.6-9.5-5.4-3.4-9.6-5.5-10.1-5s-6.2 11.9-12.6 25.3c-14.2 29.8-15 31.1-17.8 31.1-3.6 0-13.9-9.3-33.5-30.4-10.1-10.8-18.7-19.3-19.2-18.9-.4.4-5.4 10.8-11.2 23-11.8 25.1-15.2 31.3-17.1 31.3-.8 0-7.3-6.2-14.6-13.8-7.3-7.5-18.9-19-25.9-25.5-6.9-6.4-12.7-12.3-12.9-13-.2-1 22.3-51.7 25.4-57.1.8-1.3 1.8-1.7 3.5-1.3 3.7 1 18.8 14.7 36.3 33.1 9.1 9.5 16.3 16.3 16.8 15.8s6.5-13 13.4-27.8 13.3-27.7 14.3-28.7c1.7-1.8 2.5-1 21 18.6 10.6 11.3 22.4 23.3 26.4 26.7l7.1 6.2 2.3-4.8c1.3-2.7 7-15.2 12.7-27.8 9.9-21.5 12.7-26.6 14.8-26.6.5 0 2.8 1 5.1 2.1zm-848.2 11.5c3 6.1 9.1 19.1 13.4 28.8 4.3 9.8 8.2 17.9 8.6 18.2 1.2.7 18.3-15.6 35.5-33.9 9.7-10.3 17.3-17.7 18.2-17.5s7 12.1 14.8 28.7l13.8 28.8c.3.3 10.6-9.6 22.8-22 21.8-22 29.4-28.5 32.1-27.4.7.3 7.1 13.3 14.2 28.9l13.2 29c.2.4-2.7 3.5-6.4 6.9s-15.7 15.3-26.5 26.3c-21.9 22.3-21.1 21.9-25.8 13.5-1.3-2.4-7-14.1-12.6-25.8-5.5-11.8-10.6-21.7-11.1-21.8-.6-.2-8.8 7.8-18.2 17.9-24.1 25.9-32.7 33.2-36 30.5-.8-.7-7.4-13.5-14.8-28.5-8.4-17.3-13.8-27.2-14.7-27.2-.8 0-5.9 2.8-11.3 6.2-13 8.2-21.3 11.9-36.3 16.3-6.9 2-12.9 4-13.3 4.4-.9.9 1.7 7.1 15.7 37.8 5.3 11.6 9.6 21.6 9.6 22.2 0 1.9-4.9 2.4-15.3 1.7-13.9-1-23.7-3-37-7.6-16.2-5.6-34-13.6-35.5-15.8s-25.7-55-26.7-58.2 2.2-2.6 15.3 2.9c14.3 5.9 25.3 9.5 35.2 11.6 7.7 1.7 33 3.3 33 2.2 0-.4-5.7-13.1-12.6-28.4s-12.6-28.9-12.7-30.3c-.2-2.2.4-2.6 5.3-3.8 16.8-4.3 31.5-10.4 44.5-18.5 8.5-5.3 13.4-7.8 15-7.4.6.1 3.5 5.2 6.6 11.3zm65.5 141.8C295 438.3 301 452 301 452.9c0 1.9-21.1 15-33 20.4-8.4 3.9-23 8.7-26.3 8.7-3.7 0-8.4-3.6-11.3-8.6-3.3-5.6-17.4-36.9-20.6-45.7-2-5.5-2-6-.5-7.2.9-.7 4.2-1.5 7.2-1.9 10.8-1.2 31.3-10.2 46-20.1 4.4-3 8.8-5.3 9.9-5.2 1.4.2 5 7 15.2 29.1z" fill="#fff"/></svg>