<svg xmlns="http://www.w3.org/2000/svg" viewBox="0 0 489.3 489.3" xmlns:v="https://vecta.io/nano"><path fill="#e0e7ff" d="M486.3 215.662l-293.5-169.4c-4-2.3-10.6-2.3-14.6 0l-175 101.7c-4 2.3-4 6.1 0 8.5l293.4 169.4c4.1 2.4 10.6 2.3 14.6 0l175-101.7c4.1-2.3 4.1-6.1.1-8.5zm-153 71c-1.6-1.6-3.6-3-5.9-4.3-14.9-8.6-39-8.6-53.9 0-1.1.7-2.1 1.3-3.1 2.1l-197.7-114.2c1.9-.8 3.7-1.6 5.4-2.6 14.8-8.6 14.7-22.6-.2-31.2-1.6-.9-3.4-1.8-5.2-2.5l81.5-47.4c1.3 1 2.7 2.1 4.3 3 14.9 8.6 39.1 8.6 53.9 0 1.7-1 3.2-2 4.5-3.1l198.3 114.5c-2.6.9-5.1 2-7.4 3.3-14.8 8.6-14.7 22.6.2 31.2 2.3 1.3 4.9 2.4 7.6 3.4l-82.3 47.8zm23.9-43.2l-12.9 7.5c-2 1.1-5.2 1.2-7.2 0l-22.7-13.1c-2-1.2-2-3 0-4.2l12.9-7.5c2-1.1 5.2-1.2 7.2 0l22.7 13.1c2 1.2 2 3.1 0 4.2zm-182-105.1l-12.9 7.5c-2 1.1-5.2 1.2-7.2 0l-22.7-13.1c-2-1.2-2-3 0-4.2l12.9-7.5c2-1.1 5.2-1.2 7.2 0l22.7 13.1c2 1.2 1.9 3.1 0 4.2zm291.3 129.4l22.8 13.2-183.4 106.5-6-3.4-16.9-9.7-283-163.5 22.7-13.2 283 163.5 160.8-93.4zm-183.1 163.9L.1 267.762l22.6-13.1 283.4 163.8 160-93 22.8 13.2-182.7 106.1-5.9-3.4-16.9-9.7zm19.7-279.4c-32.3-18.6-84.5-18.6-116.7.1s-32.1 48.9.2 67.6c32.2 18.6 84.4 18.6 116.6-.1 32.1-18.8 32.1-49-.1-67.6zm-10.8 31.4l-7.6 1.8c-1.8.4-3 .3-4.1-.4-.3-.2-.5-.3-.8-.6-1.7-1.6-3.2-3.3-5-4.8-1.6-1.4-3.4-2.7-5.4-3.9-2.7-1.5-5.7-2.8-9.4-3.7-5.5-1.4-10.9-1-16.3.2l-.2.1 13.7 7.9c1.1.7 1.1 1.7 0 2.4l-4.5 2.6c-1.1.7-2.9.7-4.1 0l-15.7-9.1-3.7 2.1 15.7 9.1c1.1.7 1.1 1.7 0 2.4l-4.5 2.6c-1.1.7-2.9.7-4.1 0l-14.3-8.3c-3.2 3.9-4.2 7.7-.6 11.7 1.5 1.7 3.5 3.2 5.8 4.5 2 1.2 4.2 2.2 6.6 3.1 2.7 1 5.5 1.9 8.2 2.8.5.2.8.3 1.1.5 1.1.6 1.3 1.4.6 2.4-.9 1.5-2 3-3.1 4.5-.9 1.3-2.7 1.8-5.2 1.3-2.5-.6-5-1.2-7.4-2-4.4-1.4-8.4-3.2-11.9-5.2-3.6-2.1-6.7-4.5-9.2-7.3-5.8-6.5-5.7-13.2-.9-19.9.9-1.3 2.2-2.5 3.3-3.8l-6.7-3.9c-1.1-.7-1.1-1.7 0-2.4l4.5-2.6c1.1-.7 2.9-.7 4.1 0l5.5 3.2 3.7-2.1-5.5-3.2c-1.1-.7-1.1-1.7 0-2.4l4.5-2.6c1.1-.7 2.9-.7 4.1 0l7.1 4.1.9-.3a70.15 70.15 0 0 1 25.3-2.9c7 .5 13.3 2.2 19.1 4.6 2.3.9 4.4 2 6.3 3.1 5 2.9 8.9 6.3 11.8 10.1l.6 1.1c.8 1.7 0 2.7-2.3 3.2z"/></svg>